<svg width="50" height="6" xmlns="http://www.w3.org/2000/svg">
  <path
    d="M40.181.206c-1.156 0-1.71.205-2.138.528-.516.389-.864 1.055-.864 1.979h1.927c0-.976.454-1.425 1.075-1.425.622 0 1.076.449 1.076 1.425h1.927c0-1.425-.808-2.507-3.002-2.507zM4.344 2.093V.33h1.89v2.382H5.65v2.381H3.76v-1.84H1.89v1.84H0V2.713h.583V.33h1.89v1.762h1.87zM11.064.33l-.989 1.966L9.143.331H6.787l1.57 2.382h-.583l.63.956v1.425h1.89V3.67l.63-.956h.584l1.57-2.382h-2.015zm13.626 0h2.406c1.324 0 2.181.126 2.797.786.317.343.537.902.545 1.596h-.582l.001.04c0 .699-.217 1.378-.609 1.708-.528.448-1.026.633-2.412.633h-2.729V2.713h.583V.33zm-3.394 1.88v-.877h2.474V.332h-4.302v2.38h-.583v2.382h4.327V4.092h-2.5v-.878h2.32v-.501h.582v-.501h-2.318zm15.174-.567c0-1.055-.758-1.312-1.983-1.312h-3.195v2.38h4.425c.445-.157.753-.525.753-1.068zM13.631.332h3.201c1.082 0 1.84.415 1.84 1.655 0 .286-.044.526-.124.726H13.63V.332zm35.446 1.655c0-1.24-.758-1.655-1.84-1.655h-3.201v2.38h4.916c.08-.2.125-.44.125-.725zm-15.174.455h-.721V1.295h.69c.46 0 .746.145.746.567 0 .448-.311.58-.715.58zm-18.382.12h.385c.671 0 .914-.16.914-.627 0-.396-.186-.6-.727-.6h-.572V2.56zm30.79 0h-.386V1.333h.572c.541 0 .727.205.727.6 0 .469-.242.627-.913.627zm-20.314.151v1.3h.522c.858 0 1.374-.41 1.374-1.3h.583c0-.89-.516-1.3-1.374-1.3h-.522v1.3h-.583zM14.938 5.094h-1.89V2.713h4.917c-.247.614-.835.85-1.548.85h-1.479v1.531zm15.771 0h1.89V3.366h.572c.646 0 .727.079.814.666l.156 1.062h1.89l-.243-1.596c-.075-.482-.435-.647-.87-.66v-.066c.075-.014.147-.035.216-.06H30.71v2.382zm12.744-2.381v2.381h1.89v-1.53h1.479c.712 0 1.3-.237 1.547-.851h-4.916zm-4.93 0c0 .976.454 1.425 1.076 1.425.621 0 1.075-.449 1.075-1.425H42.6c0 .732-.212 1.306-.584 1.682-.485.495-1.262.824-2.418.824-2.195 0-3.003-1.081-3.003-2.506h1.927z"
    fill="white" fill-rule="evenodd"/>
</svg>
